<svg width="24" height="24" viewBox="0 0 24 24" fill="none" xmlns="http://www.w3.org/2000/svg">
<path fill-rule="evenodd" clip-rule="evenodd" d="M3 3L1.5 4.5V18L3 19.5H21L22.5 18V4.5L21 3H3ZM3 18V4.5H21V18H3ZM8.034 13.395H9V10.83C9 9.612 8.5275 9 7.584 9C7.3815 9 7.1565 9.036 6.909 9.1095C6.70377 9.16402 6.50767 9.24842 6.327 9.36V10.3575C6.6825 10.053 7.0575 9.9015 7.452 9.9015C7.8435 9.9015 8.04 10.1355 8.04 10.605L7.14 10.7595C6.381 10.8885 6 11.3685 6 12.201C6 12.5955 6.0915 12.9105 6.2745 13.1475C6.36401 13.2626 6.47973 13.3546 6.61201 13.416C6.7443 13.4773 6.88932 13.5061 7.035 13.5C7.47 13.5 7.7985 13.26 8.0205 12.78H8.034V13.395ZM8.04 11.3625V11.652C8.04872 11.8833 7.98586 12.1117 7.86 12.306C7.80972 12.3848 7.74027 12.4495 7.65816 12.4941C7.57604 12.5387 7.48394 12.5617 7.3905 12.561C7.32832 12.5636 7.26636 12.5521 7.20923 12.5274C7.15209 12.5028 7.10126 12.4655 7.0605 12.4185C6.9779 12.3125 6.9354 12.1808 6.9405 12.0465C6.9405 11.7135 7.1055 11.52 7.4385 11.463L8.04 11.3625ZM11.4 12.939H11.3895V13.404H10.5V7.5H11.3895V10.0155H11.4015C11.6205 9.5505 11.934 9.318 12.339 9.318C12.711 9.318 12.999 9.495 13.1985 9.8475C13.3995 10.2015 13.5 10.683 13.5 11.2965C13.5 11.961 13.383 12.4935 13.1475 12.897C12.915 13.299 12.6 13.5 12.207 13.5C11.8515 13.5 11.5815 13.3125 11.4 12.939ZM11.376 11.2575V11.6655C11.3672 11.8895 11.4229 12.1113 11.5365 12.3045C11.643 12.474 11.781 12.558 11.9475 12.558C12.15 12.558 12.3075 12.45 12.4185 12.234C12.531 12.0165 12.588 11.709 12.588 11.3115C12.588 10.9815 12.5355 10.7265 12.432 10.5405C12.3315 10.3545 12.186 10.26 11.997 10.26C11.817 10.26 11.6685 10.353 11.55 10.5375C11.425 10.7562 11.3647 11.0059 11.376 11.2575ZM16.893 13.5C17.3745 13.5 17.7435 13.413 18 13.2405V12.1755C17.7667 12.369 17.475 12.4784 17.172 12.486C17.0307 12.4929 16.8896 12.4675 16.7597 12.4116C16.6297 12.3557 16.5142 12.2708 16.422 12.1635C16.242 11.946 16.1505 11.646 16.1505 11.2665C16.1505 10.8765 16.245 10.5705 16.434 10.3485C16.5293 10.2379 16.6485 10.1503 16.7826 10.0923C16.9166 10.0344 17.0621 10.0076 17.208 10.014C17.499 10.014 17.763 10.1175 18 10.3245V9.201C17.8065 9.066 17.493 9 17.061 9C16.4355 9 15.9345 9.21 15.5595 9.633C15.186 10.053 15 10.626 15 11.355C15 11.985 15.174 12.501 15.5235 12.9C15.8715 13.3005 16.329 13.5 16.893 13.5Z" fill="#F4CE14"/>
</svg>
