<svg width="20" height="20" viewBox="0 0 20 20" fill="none" xmlns="http://www.w3.org/2000/svg">
<path fill-rule="evenodd" clip-rule="evenodd" d="M3.59128 1.37496C4.01003 1.54496 4.34378 1.87246 4.52253 2.28746C4.61253 2.49996 4.65878 2.72746 4.65628 2.95871C4.65865 3.24022 4.59003 3.51778 4.45675 3.76575C4.32348 4.01372 4.12986 4.22411 3.89378 4.37746C3.6143 4.56098 3.28688 4.65795 2.95253 4.65621C2.72852 4.65737 2.50651 4.61409 2.29935 4.52886C2.09219 4.44363 1.90399 4.31816 1.74565 4.15971C1.58731 4.00125 1.46197 3.81296 1.3769 3.60573C1.29183 3.39851 1.2487 3.17646 1.25003 2.95246C1.24834 2.6175 1.34601 2.28957 1.53068 2.01011C1.71535 1.73066 1.97873 1.51224 2.28753 1.38246C2.70413 1.20816 3.17271 1.20546 3.59128 1.37496ZM3.21878 3.58121C3.34096 3.5283 3.44519 3.4411 3.51885 3.33017C3.5925 3.21925 3.63242 3.08935 3.63378 2.95621C3.63476 2.8087 3.58809 2.66481 3.50073 2.54595C3.41336 2.42709 3.28995 2.33962 3.14887 2.29653C3.00779 2.25344 2.85656 2.25705 2.7177 2.30682C2.57883 2.35659 2.45974 2.44985 2.37814 2.57274C2.29654 2.69564 2.25679 2.84159 2.26481 2.98888C2.27282 3.13618 2.32817 3.27695 2.42263 3.39026C2.51708 3.50357 2.64559 3.58337 2.78904 3.61777C2.93249 3.65217 3.08321 3.63935 3.21878 3.58121ZM8.03753 1.38621L1.38753 8.03746L2.24503 8.89621L8.89503 2.24621L8.03753 1.38621ZM14.375 11.25H15.625V14.375H18.75V15.625H15.625V18.75H14.375V15.625H11.25V14.375H14.375V11.25ZM7.21003 11.9062L8.09378 12.79L5.88378 15L8.09378 17.21L7.21003 18.0937L5.00003 15.8837L2.79003 18.0937L1.90628 17.21L4.11628 15L1.90628 12.79L2.79003 11.9062L5.00003 14.1162L7.21003 11.9062ZM8.89753 6.66246C8.76803 6.35347 8.54967 6.0899 8.27016 5.90518C7.99064 5.72047 7.66256 5.62294 7.32753 5.62496C6.99258 5.62327 6.66464 5.72094 6.38519 5.90561C6.10573 6.09028 5.88731 6.35366 5.75753 6.66246C5.64728 6.92171 5.60309 7.20426 5.62892 7.48479C5.65474 7.76531 5.74978 8.03505 5.9055 8.26981C6.06122 8.50457 6.27277 8.69702 6.52117 8.82991C6.76957 8.96279 7.04707 9.03196 7.32878 9.03121C7.61074 9.03281 7.88865 8.96415 8.13742 8.83143C8.38619 8.69871 8.59798 8.50611 8.75367 8.27103C8.90936 8.03595 9.00403 7.76579 9.02915 7.48495C9.05427 7.20411 9.00903 6.92144 8.89753 6.66246ZM7.95628 7.59371C7.88668 7.75631 7.75739 7.88604 7.59503 7.95621C7.46982 8.00899 7.33172 8.02327 7.19836 7.99722C7.065 7.97117 6.94243 7.90598 6.84628 7.80996C6.78364 7.74831 6.73393 7.6748 6.70003 7.59371C6.64587 7.46854 6.63059 7.32997 6.6562 7.196C6.6818 7.06204 6.7471 6.93887 6.84361 6.84249C6.94012 6.74612 7.06338 6.68099 7.19738 6.65557C7.33139 6.63015 7.46993 6.64562 7.59503 6.69996C7.67548 6.73447 7.74881 6.78364 7.81128 6.84496C7.9068 6.94143 7.97156 7.06406 7.99737 7.19734C8.02318 7.33062 8.00888 7.46856 7.95628 7.59371ZM17.5 3.74996H12.5V4.99996H17.5V3.74996Z" fill="#F4CE14"/>
</svg>
