<svg width="24" height="24" viewBox="0 0 24 24" fill="none" xmlns="http://www.w3.org/2000/svg">
<path fill-rule="evenodd" clip-rule="evenodd" d="M11.943 1.25C9.634 1.25 7.825 1.25 6.413 1.44C4.969 1.634 3.829 2.04 2.934 2.934C2.039 3.829 1.634 4.969 1.44 6.414C1.25 7.825 1.25 9.634 1.25 11.943V12.057C1.25 14.366 1.25 16.175 1.44 17.587C1.634 19.031 2.04 20.171 2.934 21.066C3.829 21.961 4.969 22.366 6.414 22.56C7.825 22.75 9.634 22.75 11.943 22.75H12.057C14.366 22.75 16.175 22.75 17.587 22.56C19.031 22.366 20.171 21.96 21.066 21.066C21.961 20.171 22.366 19.031 22.56 17.586C22.75 16.175 22.75 14.366 22.75 12.057V11.943C22.75 9.634 22.75 7.825 22.56 6.413C22.366 4.969 21.96 3.829 21.066 2.934C20.171 2.039 19.031 1.634 17.586 1.44C16.175 1.25 14.366 1.25 12.057 1.25H11.943ZM3.995 3.995C4.565 3.425 5.335 3.098 6.614 2.926C7.914 2.752 9.622 2.75 12 2.75C14.378 2.75 16.086 2.752 17.386 2.926C18.268 3.045 18.908 3.237 19.407 3.532L14.75 8.189V6.25C14.75 6.05109 14.671 5.86032 14.5303 5.71967C14.3897 5.57902 14.1989 5.5 14 5.5C13.8011 5.5 13.6103 5.57902 13.4697 5.71967C13.329 5.86032 13.25 6.05109 13.25 6.25V10C13.25 10.414 13.586 10.75 14 10.75H17.75C17.9489 10.75 18.1397 10.671 18.2803 10.5303C18.421 10.3897 18.5 10.1989 18.5 10C18.5 9.80109 18.421 9.61032 18.2803 9.46967C18.1397 9.32902 17.9489 9.25 17.75 9.25H15.81L20.468 4.593C20.763 5.092 20.955 5.732 21.074 6.613C21.248 7.913 21.25 9.622 21.25 12C21.25 14.378 21.248 16.086 21.074 17.386C20.902 18.665 20.574 19.436 20.005 20.006C19.435 20.575 18.665 20.902 17.386 21.074C16.086 21.248 14.378 21.25 12 21.25C9.622 21.25 7.914 21.248 6.614 21.074C5.732 20.955 5.092 20.763 4.593 20.468L9.25 15.811V17.75C9.25 17.9489 9.32902 18.1397 9.46967 18.2803C9.61032 18.421 9.80109 18.5 10 18.5C10.1989 18.5 10.3897 18.421 10.5303 18.2803C10.671 18.1397 10.75 17.9489 10.75 17.75V14C10.75 13.8011 10.671 13.6103 10.5303 13.4697C10.3897 13.329 10.1989 13.25 10 13.25H6.25C6.05109 13.25 5.86032 13.329 5.71967 13.4697C5.57902 13.6103 5.5 13.8011 5.5 14C5.5 14.1989 5.57902 14.3897 5.71967 14.5303C5.86032 14.671 6.05109 14.75 6.25 14.75H8.19L3.532 19.407C3.237 18.908 3.045 18.268 2.926 17.387C2.752 16.087 2.75 14.378 2.75 12C2.75 9.622 2.752 7.914 2.926 6.614C3.098 5.335 3.426 4.565 3.995 3.995Z" fill="#F4CE14"/>
</svg>
