<svg width="24" height="24" viewBox="0 0 24 24" fill="none" xmlns="http://www.w3.org/2000/svg">
<g clip-path="url(#clip0_150_27)">
<path d="M8.8 0C8.16348 0 7.55303 0.252856 7.10294 0.702944C6.65286 1.15303 6.4 1.76348 6.4 2.4V6.4H2.4C1.76348 6.4 1.15303 6.65286 0.702944 7.10294C0.252856 7.55303 0 8.16348 0 8.8L0 21.6C0 22.2365 0.252856 22.847 0.702944 23.2971C1.15303 23.7471 1.76348 24 2.4 24H15.2C15.8365 24 16.447 23.7471 16.8971 23.2971C17.3471 22.847 17.6 22.2365 17.6 21.6V17.6H21.6C22.2365 17.6 22.847 17.3471 23.2971 16.8971C23.7471 16.447 24 15.8365 24 15.2V2.4C24 1.76348 23.7471 1.15303 23.2971 0.702944C22.847 0.252856 22.2365 0 21.6 0L8.8 0Z" fill="#F4CE14"/>
</g>
<defs>
<clipPath id="clip0_150_27">
<rect width="24" height="24" fill="white"/>
</clipPath>
</defs>
</svg>
