<svg width="22" height="22" viewBox="0 0 22 22" fill="none" xmlns="http://www.w3.org/2000/svg">
<path d="M1 6H2M1 16H2M20 6H21M20 16H21M16 2V1M6 2V1M16 21V20M6 21V20" stroke="#F4CE14" stroke-width="1.5" stroke-linecap="round" stroke-linejoin="round"/>
<path d="M5 16.4V5.6C5 5.44087 5.06321 5.28826 5.17574 5.17574C5.28826 5.06321 5.44087 5 5.6 5H16.4C16.5591 5 16.7117 5.06321 16.8243 5.17574C16.9368 5.28826 17 5.44087 17 5.6V16.4C17 16.5591 16.9368 16.7117 16.8243 16.8243C16.7117 16.9368 16.5591 17 16.4 17H5.6C5.44087 17 5.28826 16.9368 5.17574 16.8243C5.06321 16.7117 5 16.5591 5 16.4Z" fill="#F4CE14" stroke="#F4CE14" stroke-width="1.5" stroke-linecap="round" stroke-linejoin="round"/>
</svg>
