<svg width="182" height="168" viewBox="0 0 182 168" fill="none" xmlns="http://www.w3.org/2000/svg">
<path d="M126 115.697H171C173.652 115.697 176.196 114.73 178.071 113.009C179.946 111.289 181 108.955 181 106.521V10.1757C181 7.74219 179.946 5.4083 178.071 3.68751C176.196 1.96673 173.652 1 171 1H65.9999C63.3477 1 60.8042 1.96673 58.9288 3.68751C57.0535 5.4083 55.9999 7.74219 55.9999 10.1757V51.4666" stroke="#F4CE14" stroke-width="2" stroke-linecap="round" stroke-linejoin="round"/>
<path d="M56 51.4667H11C8.34784 51.4667 5.8043 52.4334 3.92893 54.1542C2.05357 55.875 1 58.2089 1 60.6424V156.988C1 159.421 2.05357 161.755 3.92893 163.476C5.8043 165.197 8.34784 166.163 11 166.163H116C118.652 166.163 121.196 165.197 123.071 163.476C124.947 161.755 126 159.421 126 156.988V115.697" stroke="#F4CE14" stroke-width="2" stroke-linecap="round" stroke-linejoin="round"/>
<path d="M116 51.4666H65.9999C60.4771 51.4666 55.9999 55.5747 55.9999 60.6424V106.521C55.9999 111.589 60.4771 115.697 65.9999 115.697H116C121.523 115.697 126 111.589 126 106.521V60.6424C126 55.5747 121.523 51.4666 116 51.4666Z" fill="#F4CE14" stroke="#F4CE14" stroke-width="2" stroke-linecap="round" stroke-linejoin="round"/>
<path d="M126 115.697H171C173.652 115.697 176.196 114.73 178.071 113.009C179.946 111.289 181 108.955 181 106.521V10.1757C181 7.74219 179.946 5.4083 178.071 3.68751C176.196 1.96673 173.652 1 171 1H65.9999C63.3477 1 60.8042 1.96673 58.9288 3.68751C57.0535 5.4083 55.9999 7.74219 55.9999 10.1757V51.4666" stroke="#F4CE14" stroke-width="2" stroke-linecap="round" stroke-linejoin="round"/>
<path d="M56 51.4667H11C8.34784 51.4667 5.8043 52.4334 3.92893 54.1542C2.05357 55.875 1 58.2089 1 60.6424V156.988C1 159.421 2.05357 161.755 3.92893 163.476C5.8043 165.197 8.34784 166.163 11 166.163H116C118.652 166.163 121.196 165.197 123.071 163.476C124.947 161.755 126 159.421 126 156.988V115.697" stroke="#F4CE14" stroke-width="2" stroke-linecap="round" stroke-linejoin="round"/>
<path d="M116 51.4666H65.9999C60.4771 51.4666 55.9999 55.5747 55.9999 60.6424V106.521C55.9999 111.589 60.4771 115.697 65.9999 115.697H116C121.523 115.697 126 111.589 126 106.521V60.6424C126 55.5747 121.523 51.4666 116 51.4666Z" fill="#F4CE14" stroke="#F4CE14" stroke-width="2" stroke-linecap="round" stroke-linejoin="round"/>
</svg>
