<svg width="180" height="166" viewBox="0 0 180 166" fill="none" xmlns="http://www.w3.org/2000/svg">
<path fill-rule="evenodd" clip-rule="evenodd" d="M89.5228 0C70.1916 0 55.0465 4.57884e-07 43.2251 1.45958C31.1358 2.9499 21.5916 6.0688 14.0986 12.9365C6.60558 19.8119 3.21488 28.5694 1.5907 39.67C4.99016e-07 50.5093 0 64.4061 0 82.1439V83.0196C0 100.757 4.99016e-07 114.654 1.5907 125.501C3.21488 136.594 6.61395 145.352 14.0986 152.227C21.5916 159.102 31.1358 162.214 43.2335 163.704C55.0465 165.163 70.1916 165.163 89.5228 165.163H90.4772C109.808 165.163 124.953 165.163 136.775 163.704C148.864 162.214 158.408 159.095 165.901 152.227C173.394 145.352 176.785 136.594 178.409 125.493C180 114.654 180 100.757 180 83.0196V82.1439C180 64.4061 180 50.5093 178.409 39.6623C176.785 28.5694 173.386 19.8119 165.901 12.9365C158.408 6.06111 148.864 2.9499 136.767 1.45958C124.953 4.57884e-07 109.808 0 90.4772 0H89.5228ZM22.9814 21.0871C27.7535 16.7084 34.2 14.1964 44.9079 12.8751C55.7916 11.5384 70.0912 11.523 90 11.523C109.909 11.523 124.208 11.5384 135.092 12.8751C142.476 13.7892 147.834 15.2642 152.012 17.5304L113.023 53.3055V38.4101C113.023 36.8821 112.362 35.4166 111.184 34.3361C110.007 33.2556 108.41 32.6486 106.744 32.6486C105.079 32.6486 103.482 33.2556 102.304 34.3361C101.127 35.4166 100.465 36.8821 100.465 38.4101V67.2177C100.465 70.398 103.278 72.9792 106.744 72.9792H138.14C139.805 72.9792 141.402 72.3722 142.58 71.2917C143.757 70.2112 144.419 68.7457 144.419 67.2177C144.419 65.6896 143.757 64.2242 142.58 63.1437C141.402 62.0632 139.805 61.4562 138.14 61.4562H121.898L160.895 25.681C163.365 29.5143 164.972 34.4308 165.968 41.1987C167.425 51.1853 167.442 64.3139 167.442 82.5817C167.442 100.85 167.425 113.97 165.968 123.957C164.528 133.782 161.782 139.705 157.019 144.084C152.247 148.455 145.8 150.967 135.092 152.288C124.208 153.625 109.909 153.64 90 153.64C70.0912 153.64 55.7916 153.625 44.9079 152.288C37.5237 151.374 32.1656 149.899 27.9879 147.633L66.9767 111.858V126.753C66.9767 128.281 67.6383 129.747 68.8158 130.827C69.9934 131.908 71.5905 132.515 73.2558 132.515C74.9211 132.515 76.5182 131.908 77.6958 130.827C78.8733 129.747 79.5349 128.281 79.5349 126.753V97.9458C79.5349 96.4177 78.8733 94.9523 77.6958 93.8718C76.5182 92.7913 74.9211 92.1842 73.2558 92.1842H41.8605C40.1952 92.1842 38.598 92.7913 37.4205 93.8718C36.2429 94.9523 35.5814 96.4177 35.5814 97.9458C35.5814 99.4738 36.2429 100.939 37.4205 102.02C38.598 103.1 40.1952 103.707 41.8605 103.707H58.1023L19.1051 139.482C16.6353 135.649 15.0279 130.733 14.0316 123.965C12.5749 113.978 12.5581 100.85 12.5581 82.5817C12.5581 64.3139 12.5749 51.193 14.0316 41.2064C15.4716 31.3811 18.2177 25.4659 22.9814 21.0871Z" fill="#F4CE14"/>
</svg>
