<svg width="217" height="178" viewBox="0 0 217 178" fill="none" xmlns="http://www.w3.org/2000/svg">
<path fill-rule="evenodd" clip-rule="evenodd" d="M15.5 0L0 16.1818V161.818L15.5 178H201.5L217 161.818V16.1818L201.5 0H15.5ZM15.5 161.818V16.1818H201.5V161.818H15.5ZM67.518 112.14H77.5V84.4691C77.5 71.3295 72.6175 64.7273 62.868 64.7273C60.7755 64.7273 58.4505 65.1156 55.893 65.9085C53.7723 66.4967 51.7459 67.4072 49.879 68.6109V79.3718C53.5525 76.0869 57.4275 74.4526 61.504 74.4526C65.5495 74.4526 67.58 76.9769 67.58 82.0418L58.28 83.7085C50.437 85.1002 46.5 90.2784 46.5 99.2593C46.5 103.515 47.4455 106.913 49.3365 109.47C50.2614 110.712 51.4572 111.705 52.8241 112.366C54.1911 113.028 55.6897 113.338 57.195 113.273C61.69 113.273 65.0845 110.684 67.3785 105.505H67.518V112.14ZM67.58 90.2136V93.3367C67.6701 95.8323 67.0205 98.296 65.72 100.392C65.2005 101.242 64.4828 101.94 63.6343 102.421C62.7857 102.902 61.8341 103.151 60.8685 103.143C60.226 103.171 59.5857 103.047 58.9954 102.781C58.405 102.515 57.8797 102.113 57.4585 101.606C56.605 100.462 56.1658 99.041 56.2185 97.5926C56.2185 94.0002 57.9235 91.9127 61.3645 91.2978L67.58 90.2136ZM102.3 107.221H102.192V112.237H93V48.5455H102.192V75.6824H102.316C104.579 70.666 107.818 68.1578 112.003 68.1578C115.847 68.1578 118.823 70.0673 120.884 73.87C122.961 77.6889 124 82.8833 124 89.5016C124 96.6702 122.791 102.415 120.358 106.768C117.955 111.104 114.7 113.273 110.639 113.273C106.965 113.273 104.175 111.25 102.3 107.221ZM102.052 89.0809V93.4824C101.961 95.8986 102.537 98.2913 103.711 100.376C104.811 102.204 106.237 103.111 107.958 103.111C110.05 103.111 111.678 101.945 112.825 99.6153C113.987 97.2689 114.576 93.9516 114.576 89.6635C114.576 86.1035 114.034 83.3525 112.964 81.346C111.925 79.3395 110.422 78.32 108.469 78.32C106.609 78.32 105.075 79.3233 103.85 81.3136C102.558 83.6728 101.935 86.3663 102.052 89.0809ZM159.061 113.273C164.037 113.273 167.85 112.334 170.5 110.473V98.9842C168.089 101.072 165.075 102.252 161.944 102.334C160.484 102.409 159.026 102.134 157.683 101.531C156.34 100.928 155.147 100.013 154.194 98.8547C152.334 96.5084 151.388 93.272 151.388 89.178C151.388 84.9707 152.365 81.6696 154.318 79.2747C155.303 78.0812 156.535 77.1364 157.92 76.5113C159.305 75.8863 160.808 75.5974 162.316 75.6662C165.323 75.6662 168.051 76.7827 170.5 79.0158V66.8956C168.501 65.4393 165.261 64.7273 160.797 64.7273C154.333 64.7273 149.156 66.9927 145.281 71.556C141.422 76.0869 139.5 82.2684 139.5 90.1327C139.5 96.9291 141.298 102.496 144.91 106.8C148.506 111.121 153.233 113.273 159.061 113.273Z" fill="#F4CE14"/>
</svg>
