<svg width="180" height="166" viewBox="0 0 180 166" fill="none" xmlns="http://www.w3.org/2000/svg">
<path d="M48 44.5436H48.5V44.0436V16.5163C48.5 12.2831 50.3323 8.21356 53.6101 5.20594C56.8894 2.19699 61.3455 0.5 66 0.5H162C166.655 0.5 171.111 2.19699 174.39 5.20594C177.668 8.21356 179.5 12.2831 179.5 16.5163V104.604C179.5 108.837 177.668 112.906 174.39 115.914C171.111 118.923 166.655 120.62 162 120.62H132H131.5V121.12V148.647C131.5 152.88 129.668 156.95 126.39 159.958C123.111 162.966 118.655 164.663 114 164.663H18C13.3455 164.663 8.88936 162.966 5.61012 159.958C2.33232 156.95 0.5 152.88 0.5 148.647V60.5599C0.5 56.3267 2.33232 52.2571 5.61012 49.2495C8.88936 46.2406 13.3455 44.5436 18 44.5436H48Z" fill="#F4CE14" stroke="black"/>
</svg>
